<mxfile host="65bd71144e">
    <diagram id="UvGkC7K8fBKDAfQlVkTB" name="Page-1">
        <mxGraphModel dx="1215" dy="779" grid="1" gridSize="10" guides="1" tooltips="1" connect="1" arrows="1" fold="1" page="1" pageScale="1" pageWidth="850" pageHeight="1100" math="0" shadow="0">
            <root>
                <mxCell id="0"/>
                <mxCell id="1" parent="0"/>
                <mxCell id="3" value="" style="rounded=0;whiteSpace=wrap;html=1;" parent="1" vertex="1">
                    <mxGeometry x="195" y="90" width="330" height="580" as="geometry"/>
                </mxCell>
                <mxCell id="4" value="vocalbulary" style="rounded=0;whiteSpace=wrap;html=1;" parent="1" vertex="1">
                    <mxGeometry x="310" y="180" width="120" height="40" as="geometry"/>
                </mxCell>
                <mxCell id="5" value="từ&amp;nbsp;" style="text;html=1;align=center;verticalAlign=middle;resizable=0;points=[];autosize=1;strokeColor=none;fillColor=none;" parent="1" vertex="1">
                    <mxGeometry x="230" y="185" width="40" height="30" as="geometry"/>
                </mxCell>
                <mxCell id="6" value="Nghĩa" style="text;html=1;align=center;verticalAlign=middle;resizable=0;points=[];autosize=1;strokeColor=none;fillColor=none;" parent="1" vertex="1">
                    <mxGeometry x="230" y="245" width="60" height="30" as="geometry"/>
                </mxCell>
                <mxCell id="7" value="meaning" style="rounded=0;whiteSpace=wrap;html=1;" parent="1" vertex="1">
                    <mxGeometry x="310" y="245" width="120" height="50" as="geometry"/>
                </mxCell>
                <mxCell id="15" value="" style="rounded=0;whiteSpace=wrap;html=1;" parent="1" vertex="1">
                    <mxGeometry x="222.5" y="115" width="245" height="30" as="geometry"/>
                </mxCell>
                <mxCell id="16" value="search" style="text;html=1;align=center;verticalAlign=middle;resizable=0;points=[];autosize=1;strokeColor=none;fillColor=none;" parent="1" vertex="1">
                    <mxGeometry x="240" y="115" width="60" height="30" as="geometry"/>
                </mxCell>
                <mxCell id="17" value="" style="group" parent="1" vertex="1" connectable="0">
                    <mxGeometry x="222.5" y="425" width="275" height="125" as="geometry"/>
                </mxCell>
                <mxCell id="9" value="đồng nghĩa" style="text;html=1;align=center;verticalAlign=middle;resizable=0;points=[];autosize=1;strokeColor=none;fillColor=none;" parent="17" vertex="1">
                    <mxGeometry x="15" width="80" height="30" as="geometry"/>
                </mxCell>
                <mxCell id="10" value="Trái nghĩa" style="text;html=1;align=center;verticalAlign=middle;resizable=0;points=[];autosize=1;strokeColor=none;fillColor=none;" parent="17" vertex="1">
                    <mxGeometry x="175" width="80" height="30" as="geometry"/>
                </mxCell>
                <mxCell id="12" value="" style="endArrow=none;html=1;" parent="17" edge="1">
                    <mxGeometry width="50" height="50" relative="1" as="geometry">
                        <mxPoint x="135" y="125" as="sourcePoint"/>
                        <mxPoint x="135" y="10" as="targetPoint"/>
                    </mxGeometry>
                </mxCell>
                <mxCell id="13" value="List đồng nghĩa&amp;nbsp;" style="text;html=1;align=center;verticalAlign=middle;resizable=0;points=[];autosize=1;strokeColor=none;fillColor=none;" parent="17" vertex="1">
                    <mxGeometry y="50" width="110" height="30" as="geometry"/>
                </mxCell>
                <mxCell id="14" value="List trái nghĩa&amp;nbsp;" style="text;html=1;align=center;verticalAlign=middle;resizable=0;points=[];autosize=1;strokeColor=none;fillColor=none;" parent="17" vertex="1">
                    <mxGeometry x="175" y="70" width="100" height="30" as="geometry"/>
                </mxCell>
                <mxCell id="18" value="loại từ" style="text;html=1;align=center;verticalAlign=middle;resizable=0;points=[];autosize=1;strokeColor=none;fillColor=none;" parent="1" vertex="1">
                    <mxGeometry x="235" y="320" width="60" height="30" as="geometry"/>
                </mxCell>
                <mxCell id="19" value="type" style="rounded=0;whiteSpace=wrap;html=1;" parent="1" vertex="1">
                    <mxGeometry x="310" y="310" width="100" height="30" as="geometry"/>
                </mxCell>
                <mxCell id="20" value="ghi chú&amp;nbsp;" style="text;html=1;align=center;verticalAlign=middle;resizable=0;points=[];autosize=1;strokeColor=none;fillColor=none;" parent="1" vertex="1">
                    <mxGeometry x="230" y="360" width="70" height="30" as="geometry"/>
                </mxCell>
                <mxCell id="21" value="note" style="rounded=0;whiteSpace=wrap;html=1;" parent="1" vertex="1">
                    <mxGeometry x="310" y="355" width="110" height="40" as="geometry"/>
                </mxCell>
                <mxCell id="23" value="footer" style="rounded=0;whiteSpace=wrap;html=1;" parent="1" vertex="1">
                    <mxGeometry x="195" y="610" width="335" height="60" as="geometry"/>
                </mxCell>
                <mxCell id="24" value="+" style="text;html=1;align=center;verticalAlign=middle;resizable=0;points=[];autosize=1;strokeColor=none;fillColor=none;strokeWidth=4;fontSize=21;fontStyle=1" parent="1" vertex="1">
                    <mxGeometry x="310" y="420" width="40" height="40" as="geometry"/>
                </mxCell>
                <mxCell id="25" value="+" style="text;html=1;align=center;verticalAlign=middle;resizable=0;points=[];autosize=1;strokeColor=none;fillColor=none;strokeWidth=4;fontSize=21;fontStyle=1" parent="1" vertex="1">
                    <mxGeometry x="465" y="420" width="40" height="40" as="geometry"/>
                </mxCell>
                <mxCell id="26" value="=" style="text;html=1;align=center;verticalAlign=middle;resizable=0;points=[];autosize=1;strokeColor=none;fillColor=none;fontSize=21;" parent="1" vertex="1">
                    <mxGeometry x="480" y="110" width="40" height="40" as="geometry"/>
                </mxCell>
                <mxCell id="37" value="" style="rounded=0;whiteSpace=wrap;html=1;fontSize=11;" parent="1" vertex="1">
                    <mxGeometry x="960" y="480" width="365" height="550" as="geometry"/>
                </mxCell>
                <mxCell id="36" value="" style="group;fontColor=#CCFFCC;" parent="1" vertex="1" connectable="0">
                    <mxGeometry x="990" y="680" width="305" height="170" as="geometry"/>
                </mxCell>
                <mxCell id="27" value="" style="rounded=0;whiteSpace=wrap;html=1;labelBackgroundColor=#FFFFFF;" parent="36" vertex="1">
                    <mxGeometry x="5" width="300" height="170" as="geometry"/>
                </mxCell>
                <mxCell id="28" value="chổ nhập từ&amp;nbsp;" style="rounded=0;whiteSpace=wrap;html=1;" parent="36" vertex="1">
                    <mxGeometry x="43" y="20" width="232" height="30" as="geometry"/>
                </mxCell>
                <mxCell id="29" value="" style="rounded=0;whiteSpace=wrap;html=1;" parent="36" vertex="1">
                    <mxGeometry x="5" y="55" width="300" height="35" as="geometry"/>
                </mxCell>
                <mxCell id="30" value="từ tìm đc" style="rounded=1;whiteSpace=wrap;html=1;fontSize=4;" parent="36" vertex="1">
                    <mxGeometry x="15" y="67.5" width="40" height="12.5" as="geometry"/>
                </mxCell>
                <mxCell id="31" value="từ tìm đc" style="rounded=1;whiteSpace=wrap;html=1;fontSize=4;" parent="36" vertex="1">
                    <mxGeometry x="75" y="66.25" width="40" height="12.5" as="geometry"/>
                </mxCell>
                <mxCell id="32" value="từ tìm đc" style="rounded=1;whiteSpace=wrap;html=1;fontSize=4;" parent="36" vertex="1">
                    <mxGeometry x="142.5" y="66.25" width="40" height="12.5" as="geometry"/>
                </mxCell>
                <mxCell id="33" value="từ tìm đc" style="rounded=1;whiteSpace=wrap;html=1;fontSize=4;" parent="36" vertex="1">
                    <mxGeometry x="215" y="66.25" width="40" height="12.5" as="geometry"/>
                </mxCell>
                <mxCell id="34" value="Thêm&amp;nbsp;" style="rounded=0;whiteSpace=wrap;html=1;fontSize=4;" parent="36" vertex="1">
                    <mxGeometry x="131.5" y="110" width="55" height="20" as="geometry"/>
                </mxCell>
                <mxCell id="35" value="X" style="text;html=1;align=center;verticalAlign=middle;resizable=0;points=[];autosize=1;strokeColor=none;fillColor=none;fontSize=11;" parent="36" vertex="1">
                    <mxGeometry width="30" height="30" as="geometry"/>
                </mxCell>
                <mxCell id="39" value="" style="rounded=0;whiteSpace=wrap;html=1;" parent="1" vertex="1">
                    <mxGeometry x="240" y="860" width="450" height="660" as="geometry"/>
                </mxCell>
                <mxCell id="40" value="" style="rounded=0;whiteSpace=wrap;html=1;" parent="1" vertex="1">
                    <mxGeometry x="320" y="1040" width="300" height="350" as="geometry"/>
                </mxCell>
                <mxCell id="41" value="câu hỏi&amp;nbsp;" style="text;html=1;align=center;verticalAlign=middle;resizable=0;points=[];autosize=1;strokeColor=none;fillColor=none;" parent="1" vertex="1">
                    <mxGeometry x="720" y="1050" width="70" height="30" as="geometry"/>
                </mxCell>
                <mxCell id="42" value="main" style="rounded=1;whiteSpace=wrap;html=1;" vertex="1" parent="1">
                    <mxGeometry x="370" y="1860" width="120" height="60" as="geometry"/>
                </mxCell>
                <mxCell id="45" value="dev(main2)" style="rounded=1;whiteSpace=wrap;html=1;fillColor=#121D14;" vertex="1" parent="1">
                    <mxGeometry x="620" y="1860" width="120" height="60" as="geometry"/>
                </mxCell>
                <mxCell id="53" value="" style="edgeStyle=none;html=1;" edge="1" parent="1" source="47" target="52">
                    <mxGeometry relative="1" as="geometry"/>
                </mxCell>
                <mxCell id="57" style="edgeStyle=none;html=1;" edge="1" parent="1" source="47" target="56">
                    <mxGeometry relative="1" as="geometry"/>
                </mxCell>
                <mxCell id="62" style="edgeStyle=none;html=1;entryX=0.5;entryY=0;entryDx=0;entryDy=0;" edge="1" parent="1" source="47" target="63">
                    <mxGeometry relative="1" as="geometry">
                        <mxPoint x="720" y="2140" as="targetPoint"/>
                    </mxGeometry>
                </mxCell>
                <mxCell id="68" style="edgeStyle=none;html=1;entryX=0.5;entryY=0;entryDx=0;entryDy=0;" edge="1" parent="1" source="47" target="67">
                    <mxGeometry relative="1" as="geometry"/>
                </mxCell>
                <mxCell id="47" value="Nam" style="rounded=1;whiteSpace=wrap;html=1;" vertex="1" parent="1">
                    <mxGeometry x="250" y="1980" width="120" height="60" as="geometry"/>
                </mxCell>
                <mxCell id="48" value="tính" style="rounded=1;whiteSpace=wrap;html=1;" vertex="1" parent="1">
                    <mxGeometry x="425" y="1980" width="120" height="60" as="geometry"/>
                </mxCell>
                <mxCell id="49" value="tín" style="rounded=1;whiteSpace=wrap;html=1;fillColor=#121D14;" vertex="1" parent="1">
                    <mxGeometry x="780" y="1980" width="120" height="60" as="geometry"/>
                </mxCell>
                <mxCell id="50" value="tòng" style="rounded=1;whiteSpace=wrap;html=1;fillColor=#121D14;" vertex="1" parent="1">
                    <mxGeometry x="600" y="1980" width="120" height="60" as="geometry"/>
                </mxCell>
                <mxCell id="51" value="thuận cac" style="rounded=1;whiteSpace=wrap;html=1;fillColor=#121D14;" vertex="1" parent="1">
                    <mxGeometry x="950" y="1980" width="120" height="60" as="geometry"/>
                </mxCell>
                <mxCell id="54" style="edgeStyle=none;html=1;" edge="1" parent="1" source="52">
                    <mxGeometry relative="1" as="geometry">
                        <mxPoint x="150" y="2290" as="targetPoint"/>
                    </mxGeometry>
                </mxCell>
                <mxCell id="52" value="lệnh chuyển nhánh" style="whiteSpace=wrap;html=1;rounded=1;" vertex="1" parent="1">
                    <mxGeometry x="90" y="2130" width="120" height="60" as="geometry"/>
                </mxCell>
                <mxCell id="55" value="git checkout &amp;lt;tên nhánh &amp;gt;" style="rounded=1;whiteSpace=wrap;html=1;" vertex="1" parent="1">
                    <mxGeometry x="90" y="2300" width="120" height="60" as="geometry"/>
                </mxCell>
                <mxCell id="58" style="edgeStyle=none;html=1;entryX=0.5;entryY=0;entryDx=0;entryDy=0;" edge="1" parent="1" source="56" target="59">
                    <mxGeometry relative="1" as="geometry">
                        <mxPoint x="300" y="2320" as="targetPoint"/>
                    </mxGeometry>
                </mxCell>
                <mxCell id="56" value="lệnh pull" style="whiteSpace=wrap;html=1;rounded=1;" vertex="1" parent="1">
                    <mxGeometry x="290" y="2110" width="120" height="60" as="geometry"/>
                </mxCell>
                <mxCell id="59" value="git pull origin dev" style="rounded=1;whiteSpace=wrap;html=1;" vertex="1" parent="1">
                    <mxGeometry x="290" y="2310" width="120" height="60" as="geometry"/>
                </mxCell>
                <mxCell id="65" value="" style="edgeStyle=none;html=1;" edge="1" parent="1" source="63" target="64">
                    <mxGeometry relative="1" as="geometry"/>
                </mxCell>
                <mxCell id="63" value="lệnh Push" style="whiteSpace=wrap;html=1;rounded=1;" vertex="1" parent="1">
                    <mxGeometry x="520" y="2130" width="120" height="60" as="geometry"/>
                </mxCell>
                <mxCell id="64" value="git push origin &amp;lt;nhánh mình &amp;gt;&amp;nbsp;&lt;br&gt;vd&amp;nbsp;&lt;br&gt;git push origin Nam" style="whiteSpace=wrap;html=1;rounded=1;" vertex="1" parent="1">
                    <mxGeometry x="520" y="2300" width="120" height="60" as="geometry"/>
                </mxCell>
                <mxCell id="70" style="edgeStyle=none;html=1;" edge="1" parent="1" source="67" target="69">
                    <mxGeometry relative="1" as="geometry"/>
                </mxCell>
                <mxCell id="67" value="chuyển nhánh về dev" style="whiteSpace=wrap;html=1;rounded=1;" vertex="1" parent="1">
                    <mxGeometry x="790" y="2130" width="120" height="60" as="geometry"/>
                </mxCell>
                <mxCell id="72" value="" style="edgeStyle=none;html=1;" edge="1" parent="1" source="69" target="71">
                    <mxGeometry relative="1" as="geometry"/>
                </mxCell>
                <mxCell id="69" value="git checkout dev" style="rounded=1;whiteSpace=wrap;html=1;" vertex="1" parent="1">
                    <mxGeometry x="790" y="2240" width="120" height="60" as="geometry"/>
                </mxCell>
                <mxCell id="75" value="" style="edgeStyle=none;html=1;" edge="1" parent="1" source="71" target="74">
                    <mxGeometry relative="1" as="geometry"/>
                </mxCell>
                <mxCell id="71" value="git merger &amp;lt;nhánh mình &amp;gt;&lt;br&gt;vd&amp;nbsp;&lt;br&gt;git merger Nam" style="whiteSpace=wrap;html=1;rounded=1;" vertex="1" parent="1">
                    <mxGeometry x="790" y="2390" width="120" height="60" as="geometry"/>
                </mxCell>
                <mxCell id="73" value="merger code lên dev" style="text;html=1;align=center;verticalAlign=middle;resizable=0;points=[];autosize=1;strokeColor=none;fillColor=none;" vertex="1" parent="1">
                    <mxGeometry x="850" y="2325" width="130" height="30" as="geometry"/>
                </mxCell>
                <mxCell id="74" value="git push origin dev" style="whiteSpace=wrap;html=1;rounded=1;" vertex="1" parent="1">
                    <mxGeometry x="790" y="2510" width="120" height="60" as="geometry"/>
                </mxCell>
                <mxCell id="76" value="main" style="rounded=1;whiteSpace=wrap;html=1;fillColor=#121D14;" vertex="1" parent="1">
                    <mxGeometry x="370" y="1860" width="120" height="60" as="geometry"/>
                </mxCell>
                <mxCell id="77" value="Nam" style="rounded=1;whiteSpace=wrap;html=1;fillColor=#121D14;" vertex="1" parent="1">
                    <mxGeometry x="250" y="1980" width="120" height="60" as="geometry"/>
                </mxCell>
                <mxCell id="78" value="tính" style="rounded=1;whiteSpace=wrap;html=1;fillColor=#121D14;" vertex="1" parent="1">
                    <mxGeometry x="425" y="1980" width="120" height="60" as="geometry"/>
                </mxCell>
            </root>
        </mxGraphModel>
    </diagram>
</mxfile>